<svg xmlns="http://www.w3.org/2000/svg" x="0px" y="0px" viewBox="0 0 384 384"  width="512px" height="512px">
    <g>
        <path d="M206.896,0.874c-3.958-1.688-8.458-0.885-11.563,2.042L85.479,106.665H10.667C4.771,106.665,0,111.436,0,117.332v149.333     c0,5.896,4.771,10.667,10.667,10.667h74.813l109.854,103.75c2.021,1.917,4.667,2.917,7.333,2.917     c1.417,0,2.854-0.281,4.229-0.875c3.896-1.677,6.438-5.531,6.438-9.792V10.665C213.333,6.405,210.792,2.551,206.896,0.874z" class="active-path"  fill="#FFFFFF"/>
        <path d="M262.452,132.214l-15.199,15.199c-3.505,3.505-4.44,9.168-1.513,13.168c6.449,8.819,10.26,19.682,10.26,31.418     c0,11.736-3.811,22.599-10.26,31.417c-2.927,4-1.992,9.664,1.513,13.169l15.199,15.198c4.655,4.656,12.259,3.939,16.28-1.276     c12.495-16.208,19.935-36.505,19.935-58.508c0-22.004-7.44-42.301-19.935-58.509     C274.711,128.275,267.107,127.557,262.452,132.214z"  class="active-path"  fill="#FFFFFF"/>
    </g>
</svg>
